<svg fill="none" height="34" width="214" xmlns="http://www.w3.org/2000/svg"><clipPath id="a"><path d="M0 0h212.084v34H0z"/></clipPath><g clip-path="url(#a)" fill="#074054"><path d="M17 0a17 17 0 100 34 17 17 0 000-34zm8.756 19.92a4.127 4.127 0 11-5.836 5.836 4.13 4.13 0 00-5.836 0 4.126 4.126 0 01-6.172-5.461c.103-.13.215-.254.332-.375a4.122 4.122 0 000-5.832 4.13 4.13 0 115.84-5.844 4.123 4.123 0 005.832 0 4.13 4.13 0 115.84 5.84 4.126 4.126 0 000 5.832z"/><path d="M19.92 19.92a4.127 4.127 0 10-5.836-5.837 4.127 4.127 0 005.836 5.837zM53.076 8.218c3.838 0 6.568 2.153 7.873 5.336h3.803a11.961 11.961 0 00-11.547-8.752 12.197 12.197 0 100 24.396 12.059 12.059 0 0011.517-8.584h-3.876c-1.365 3.088-4.036 5.138-7.753 5.138A8.645 8.645 0 0144.48 17a8.67 8.67 0 018.597-8.782zM75.137 12.284a8.459 8.459 0 108.42 8.459 8.37 8.37 0 00-8.42-8.46zm0 13.662c-2.83 0-4.98-2.343-4.98-5.203s2.154-5.207 4.98-5.207a5.098 5.098 0 015.009 5.207 5.1 5.1 0 01-5.01 5.203zM94.82 12.284a6.076 6.076 0 00-5.009 2.438V12.61h-3.446v16.246h3.48V19.93c0-2.864 1.792-4.622 4.135-4.622 2.585 0 3.933 1.693 3.933 4.359v9.191h3.514v-9.475c-.004-4.432-2.51-7.098-6.607-7.098zM109.008 6.853l-3.515 1.916v3.842h-2.765v3.123h2.765v6.503c0 5.074 1.495 6.638 6.461 6.638h.516v-3.287c-2.993 0-3.445-.456-3.445-3.38v-6.461h3.445V12.61h-3.445zM122.67 12.284a8.35 8.35 0 00-8.425 8.523c0 4.617 3.256 8.39 8.395 8.39 4.164 0 6.925-2.209 8.183-5.788h-3.764c-.616 1.693-2.154 2.765-4.394 2.765-2.86 0-4.716-1.822-5.104-4.329h13.503v-1.201c0-4.846-3.609-8.36-8.394-8.36zm-4.88 6.637a5.07 5.07 0 014.914-3.545c2.438 0 4.23 1.266 4.815 3.545zM142.323 12.284a6.08 6.08 0 00-5.009 2.438v-2.11h-3.446v16.245h3.484V19.93c0-2.864 1.788-4.622 4.131-4.622 2.584 0 3.936 1.693 3.936 4.36v9.19h3.511v-9.475c-.005-4.432-2.49-7.098-6.607-7.098zM156.51 6.853l-3.514 1.916v3.842h-2.765v3.123h2.765v6.503c0 5.074 1.499 6.638 6.46 6.638h.521v-3.287c-2.993 0-3.445-.456-3.445-3.38v-6.461h3.445V12.61h-3.445zM174.63 8.218c3.842 0 6.573 2.153 7.873 5.336h3.808a11.96 11.96 0 00-11.547-8.752 12.198 12.198 0 100 24.396 12.06 12.06 0 0011.512-8.584H182.4c-1.37 3.088-4.036 5.138-7.778 5.138A8.643 8.643 0 01166.007 17a8.687 8.687 0 01.623-3.341 8.675 8.675 0 018-5.44zM201.769 14.722a7.02 7.02 0 00-5.401-2.438c-4.273 0-8.149 3.252-8.149 8.459s3.967 8.455 8.097 8.455a6.929 6.929 0 005.436-2.585v2.244h3.48V12.611h-3.48zm-4.936 11.288a5.166 5.166 0 01-5.168-5.302 5.147 5.147 0 011.451-3.732 5.148 5.148 0 015.691-1.153 5.148 5.148 0 012.791 2.872c.249.641.367 1.326.348 2.013.017 2.93-2.163 5.302-5.113 5.302zM212.08 5.125h-3.48v23.75h3.48z"/></g></svg>